<?xml version="1.0" encoding="utf-8"?>
<!-- Generator: Adobe Illustrator 27.3.0, SVG Export Plug-In . SVG Version: 6.00 Build 0)  -->
<svg version="1.1" id="Capa_1" xmlns="http://www.w3.org/2000/svg" xmlns:xlink="http://www.w3.org/1999/xlink" x="0px" y="0px"
	 viewBox="0 0 82 28" style="enable-background:new 0 0 82 28;" xml:space="preserve">
<style type="text/css">
	.st0{fill:#113250;}
	.st1{fill:#4C657B;}
	.st2{fill:#8898A7;}
</style>
<g>
	<path class="st0" d="M59.9,26.7c-0.2,0-0.3,0-0.5-0.1c-0.4-0.1-0.8-0.1-1.2-0.2c-0.5-0.1-1-0.3-1.5-0.5c-0.5-0.2-1.1-0.5-1.5-0.9
		c-0.3-0.2-0.6-0.4-0.8-0.7c-0.4-0.5-0.8-1-1.2-1.6c-0.3-0.5-0.6-1-0.8-1.5c-0.2-0.4-0.3-0.8-0.4-1.2c-0.1-0.5-0.2-0.9-0.3-1.4
		c0-0.3,0-0.5,0-0.8c0-2.4,0-4.9,0-7.3c0-0.6,0.1-1.1,0.2-1.7c0.3-1.2,0.7-2.3,1.4-3.3c0.3-0.5,0.6-0.9,1-1.3
		c0.6-0.7,1.4-1.3,2.4-1.7C57.4,2.2,58.2,2,59,1.9c0.6-0.1,1.2-0.1,1.9-0.1c3.9,0,7.7,0,11.6,0c0.1,0,0.1,0,0.2,0c0,1.9,0,3.9,0,5.8
		c-0.1,0-0.1,0-0.2,0c-3.7,0-7.5,0-11.2,0c-0.8,0-1.5,0.2-2.1,0.7c-0.7,0.5-1.2,1.1-1.4,1.9c-0.1,0.3-0.1,0.6-0.1,0.8
		c0,2.3,0,4.5,0,6.8c0,0.5,0.2,1,0.5,1.4c0.6,0.8,1.4,1.4,2.4,1.6c0.1,0,0.2,0,0.3,0c2.2,0,4.5,0,6.7,0c0.1,0,0.1,0,0.2,0
		c0-0.1,0-0.1,0-0.1c0-1.3,0-2.7,0-4c0-0.1,0-0.2-0.2-0.2c-1.5,0-3,0-4.5,0c-0.1,0-0.1,0-0.2,0c0-1.7,0-3.5,0-5.2c0.1,0,0.1,0,0.2,0
		c1.9,0,3.9,0,5.8,0c0.4,0,0.9,0,1.3,0c1,0,1.8,0.6,2.2,1.5c0.1,0.3,0.2,0.7,0.2,1.1c0,4.2,0,8.4,0,12.6c0,0.1,0,0.2,0,0.2
		C68.4,26.7,64.2,26.7,59.9,26.7z"/>
	<path class="st0" d="M22.1,15.1c0-4.4,0-8.9,0-13.4c1.9,0,3.9,0,5.8,0c0,0.1,0,0.1,0,0.2c0,8.2,0,16.4,0,24.6c0,0.1,0,0.1,0,0.2
		c-0.2,0-0.4,0-0.5,0c-0.3,0-0.5,0-0.8-0.1c-0.5-0.1-1-0.1-1.5-0.2c-1.2-0.2-2.2-0.8-3.1-1.6c-1.3-1.1-2.2-2.5-3.2-3.9
		c-0.2-0.3-0.4-0.6-0.6-0.9c-0.4-0.5-0.7-1.1-1.1-1.6c-0.3-0.4-0.6-0.7-0.9-1.1c-0.2-0.3-0.5-0.5-0.7-0.8c-0.1-0.1-0.2-0.2-0.3-0.3
		c0,0,0,0,0,0c0,0.1,0,0.1,0,0.2c0,3.4,0,6.9,0,10.3c0,0,0,0.1,0,0.1c0,0,0,0-0.1,0c-0.1,0-0.1,0-0.2,0c-1.8,0-3.6,0-5.4,0
		c-0.1,0-0.1,0-0.2,0c0,0,0,0-0.1,0c0-0.1,0-0.2,0-0.2c0-8.2,0-16.3,0-24.5c0-0.1,0-0.2,0-0.3c0.5,0,1,0,1.4,0.1
		c0.5,0.1,1,0.1,1.5,0.3c1,0.2,1.8,0.7,2.6,1.3c1.1,0.9,1.9,2,2.6,3.2c0.7,1.2,1.3,2.5,1.9,3.7c0.5,0.9,1,1.7,1.5,2.6
		C21.2,13.6,21.6,14.3,22.1,15.1C22.1,15.1,22.1,15.1,22.1,15.1C22.1,15.1,22.1,15.1,22.1,15.1z"/>
	<path class="st0" d="M39.2,26.7c-0.2,0-0.3-0.1-0.5-0.1c-0.8-0.1-1.6-0.3-2.3-0.6c-0.7-0.3-1.3-0.7-1.8-1.1
		c-0.5-0.4-0.9-0.9-1.4-1.3c-0.4-0.4-0.7-0.9-1.1-1.3c-0.5-0.6-0.9-1.4-1.2-2.1c-0.2-0.5-0.4-1.1-0.4-1.7c0-0.4-0.1-0.9-0.1-1.3
		c0-2,0-4,0-6.1c0-0.9,0.2-1.8,0.5-2.6c0.3-0.9,0.8-1.8,1.4-2.6c0.5-0.7,1-1.3,1.6-1.8c0.5-0.5,1.1-0.9,1.7-1.2
		c0.8-0.4,1.6-0.7,2.5-0.9c0.5-0.1,0.9-0.1,1.4-0.1c3.1,0,6.3,0,9.4,0c0,0,0.1,0,0.1,0c0,1.9,0,3.9,0,5.8c-0.1,0-0.1,0-0.2,0
		c-3,0-6,0-9.1,0c-0.8,0-1.5,0.3-2.1,0.8c-0.6,0.5-1,1-1.2,1.7c-0.1,0.4-0.2,0.8-0.1,1.2c4.2,0,8.5,0,12.7,0c0,2,0,3.9,0,5.9
		c-4.2,0-8.5,0-12.8,0c0,0.3,0,0.6,0.1,0.8c0.3,1.5,1.3,2.4,2.7,2.9c0.2,0.1,0.5,0.1,0.7,0.1c3,0,6.1,0,9.1,0c0.1,0,0.1,0,0.2,0
		c0,2,0,3.9,0,5.9C45.8,26.7,42.5,26.7,39.2,26.7z"/>
	<path class="st1" d="M81.7,1.7C81.7,1.7,81.7,1.7,81.7,1.7c0,8.3,0,16.6,0,24.9c0,0,0,0,0,0c0-0.1,0-0.2,0-0.2c0-8.1,0-16.3,0-24.4
		C81.7,1.9,81.7,1.8,81.7,1.7z"/>
	<path class="st0" d="M0.3,1.7c2,0,3.9,0,5.8,0c0,8.3,0,16.6,0,24.9c-0.3,0-0.6,0-0.9,0c-0.3,0-0.7-0.1-1-0.2
		c-0.7-0.2-1.4-0.4-2-0.8c-0.7-0.5-1.3-1.1-1.6-1.9c-0.2-0.4-0.3-0.8-0.3-1.3c0-0.5,0-1.1,0-1.6c0-6.3,0-12.6,0-18.9
		C0.3,1.9,0.3,1.8,0.3,1.7z"/>
	<path class="st1" d="M9.4,26.7c0.1,0,0.1,0,0.2,0c1.8,0,3.6,0,5.4,0c0.1,0,0.1,0,0.2,0C13.2,26.7,11.3,26.7,9.4,26.7z"/>
	<path class="st0" d="M81.7,1.7c0,0.1,0,0.2,0,0.2c0,8.1,0,16.3,0,24.4c0,0.1,0,0.2,0,0.2c-0.4,0-0.9-0.1-1.3-0.1
		c-0.4-0.1-0.8-0.2-1.2-0.3c-0.6-0.2-1.1-0.5-1.6-0.9c-0.7-0.5-1.1-1.1-1.4-1.8c-0.1-0.3-0.2-0.7-0.2-1c0-0.6,0-1.2,0-1.8
		c0-6.3,0-12.5,0-18.8c0-0.1,0-0.1,0-0.2c0,0,0.1,0,0.1,0C77.8,1.7,79.7,1.7,81.7,1.7C81.6,1.7,81.6,1.7,81.7,1.7z"/>
	<path class="st2" d="M22.1,15.1C22.1,15.1,22.1,15.1,22.1,15.1C22.1,15.1,22.1,15.1,22.1,15.1C22.1,15.1,22.1,15.1,22.1,15.1z"/>
</g>
</svg>
